<?xml version="1.0" encoding="UTF-8"?>
<svg id="Layer_1" data-name="Layer 1" xmlns="http://www.w3.org/2000/svg" viewBox="0 0 711.43 608.97">
  <defs>
    <style>
      .cls-1 {
        fill: #081c30;
      }

      .cls-1, .cls-2, .cls-3, .cls-4 {
        stroke-width: 0px;
      }

      .cls-2 {
        fill: #8399b5;
      }

      .cls-3 {
        fill: #7a92a8;
      }

      .cls-4 {
        fill: #e3e3e5;
      }
    </style>
  </defs>
  <path class="cls-3" d="M.18.19C234.4.19,468.62.23,702.84,0c6.87,0,8.22,0,8.22,0,0,200.05.37,408.92.37,608.97-232.75-.02-478.68-.33-711.43-.33,0,0,0-.11,0-12.7C0,415.74.48,235.54.55,55.33.56,36.95.31,18.57.18.19ZM343.01,495.65v-.18c38.13,0,76.26-.02,114.39,0,38.13.02,76.26.18,114.39.09,26.1-.06,47-16.92,48.66-39.88,1.74-24.02,2.14-48.16-.18-72.15-1.12-11.59-5.34-21.97-16.14-29.46-10.29-7.14-21.22-9.52-33.02-9.7-19.06-.3-38.13-.12-57.2-.23-4.24-.03-9.14.84-11.38-4.2-1.92-4.32.89-7.69,3.22-10.97,12.51-17.61,21.1-36.99,27.23-57.67,25.81-86.96-14.43-185.34-94-228.44-56.54-30.63-114.59-34.38-173.49-7.35-65.64,30.13-104.46,81.45-115.1,152.69-7.43,49.74,2.64,96.43,31.42,138.49,2.59,3.79,8.32,7.3,5.21,13.04-3.09,5.7-9.27,4.36-14.51,4.4-18.73.12-37.46.25-56.19.08-28.06-.25-52.19,17.01-51.11,50.81.53,16.7-.07,33.44.01,50.16.16,31.24,19.64,50.46,50.99,50.47,75.59,0,151.19,0,226.78,0ZM292.79,542.63c5.12,3.02,7.17,8.64,10.98,12.56,1.91,1.96,3.67,4.17,6.77,3.09,2.95-1.03,3.77-3.72,3.81-6.48.1-7.02.12-14.05-.05-21.07-.09-3.41-.71-7.43-5.15-7.07-3.99.33-3.24,4.35-3.48,7.25-.08,1,.05,2.02-.07,3.01-.22,1.88.62,4.36-1.69,5.27-2.44.96-3.43-1.5-4.6-2.93-2.97-3.62-5.41-7.73-8.72-10.99-4-3.94-7.97-2.74-8.36,2.8-.6,8.64-.1,17.36.19,26.04.08,2.39,1.37,4.76,4.29,4.6,2.89-.16,3.51-2.59,3.95-5.01.64-3.45-1.08-7.3,2.13-11.07ZM221.44,531.13c1.89.04,5.98,2.29,6.77-1.81.78-4.03-3.54-5.18-6.71-6.03-7.71-2.07-13.88.86-18.41,6.96-4.59,6.18-4.92,13.17-1.25,19.82,3.69,6.68,9.75,10.07,17.49,9.22,8.23-.9,14.74-7.98,13.73-14.46-.5-3.18-1.97-5.81-5.52-6.21-2.93-.33-6.32-1.26-8.54,1.27-2.58,2.93.8,4.21,2.14,6.36,3.17,5.08-2.11,4.69-4.27,4.55-6.03-.38-8.73-4.42-8.53-10.21.28-7.84,5.12-10.2,13.09-9.46ZM379.57,536.81c-.16-.02-.32-.04-.49-.06,0-2,.18-4.02-.04-5.99-.36-3.27-.49-7.45-4.99-7.2-3.98.22-3.61,4.13-3.7,7.08-.13,4,.05,8.01-.19,11.99-.26,4.34-1.8,8.12-6.96,8.04-4.84-.07-7.08-3.41-7.44-7.84-.4-4.97-.27-9.99-.55-14.98-.12-2.08-1.05-3.96-3.44-4.25-2.33-.28-4.16,1.15-4.38,3.2-.94,8.89-2.75,18.11,2.74,26.16,3.64,5.33,9.31,7.54,15.8,6.35,6.06-1.1,10.41-4.57,11.87-10.74.91-3.85,1.2-7.84,1.77-11.77ZM243.74,540.91c.07,18.09.66,18.76,17.3,18.15,3.4-.13,8.74,1.23,8.7-3.95-.04-4.95-5.28-3.73-8.78-4.09-2.5-.26-6.32.96-6.94-2.17-.78-3.96,3.3-3.16,5.68-3.56,2.72-.46,5.81-.76,5.53-4.32-.22-2.9-3.09-2.98-5.45-3.22-2.89-.3-6.82.13-6.17-4.38.5-3.48,4.01-2.75,6.58-2.92,1.66-.11,3.35.03,5-.16,2.35-.27,4.99-.71,5.01-3.74.02-3.08-2.67-3.31-5-3.74-17.09-3.2-21.52.53-21.46,18.1ZM479.49,551.51c-3.75-7.79-7.75-17.29-12.84-26.15-2.47-4.3-6.53-2.73-8.48,1.35-4.01,8.38-7.67,16.92-11.36,25.45-.81,1.87-.94,4,.89,5.48,2.43,1.97,4.27.47,6-1.28,6.6-6.71,13-7.07,19.27.52,1.07,1.3,2.68,2.04,4.46,1.33,2.31-.92,2.4-2.91,2.07-6.69ZM403.92,559.63c7.38-.76,9.19-1.64,11.46-8.48s-1.91-11.42-8.68-13.59c-2.31-.74-6.56-.28-6.14-3.64.52-4.14,4.51-2.51,7.29-2.23,2.04.21,4.08.44,5.15-1.83.83-1.78-.02-3.24-1.38-4.34-3.98-3.23-8.52-3.67-13.18-2-4.32,1.55-7.52,4.54-8.17,9.26-.7,5.15,2.83,7.91,6.8,9.98,2.34,1.22,5,1.8,7.45,2.82,1.55.64,3.11,1.59,2.54,3.65-.51,1.85-2.16,2.67-3.87,2.41-1.93-.29-3.86-.98-5.64-1.8-2.83-1.31-5.31-1.39-6.6,1.83-1.13,2.82,1.07,4.4,3.15,5.42,2.64,1.29,7.19,2.55,9.81,2.55ZM490.34,541.04s-.07,0-.11,0c0,3.64-.03,7.28,0,10.92.03,3.12.4,6.58,4.37,6.44,3.62-.12,4.61-3.4,4.65-6.56.1-7.61.1-15.23,0-22.84-.04-2.82-1.05-5.6-4.4-5.47-3.13.12-4.4,2.68-4.48,5.59-.12,3.97-.03,7.94-.03,11.91ZM334.94,541.66s.03,0,.04,0c0-4.64.2-9.29-.08-13.91-.15-2.4-1.42-4.59-4.43-4.23-2.28.27-3.63,2.05-3.62,4.12.04,8.94.25,17.87.6,26.8.08,2.04,1.34,3.87,3.7,3.97,2.48.1,3.6-1.87,3.72-3.85.26-4.29.08-8.6.08-12.9Z"/>
  <path class="cls-1" d="M343.01,495.65c-75.59,0-151.19,0-226.78,0-31.34,0-50.82-19.23-50.99-50.47-.09-16.72.52-33.46-.01-50.16-1.08-33.79,23.05-51.06,51.11-50.81,18.73.17,37.46.04,56.19-.08,5.23-.03,11.41,1.3,14.51-4.4,3.12-5.74-2.61-9.25-5.21-13.04-28.78-42.06-38.85-88.75-31.42-138.49,10.64-71.23,49.46-122.56,115.1-152.69,58.9-27.03,116.94-23.29,173.49,7.35,79.57,43.11,119.81,141.48,94,228.44-6.14,20.68-14.72,40.06-27.23,57.67-2.33,3.27-5.14,6.65-3.22,10.97,2.24,5.04,7.14,4.17,11.38,4.2,19.06.12,38.13-.06,57.2.23,11.81.18,22.73,2.56,33.02,9.7,10.79,7.49,15.01,17.86,16.14,29.46,2.33,23.99,1.92,48.13.18,72.15-1.66,22.95-22.56,39.81-48.66,39.88-38.13.09-76.26-.07-114.39-.09-38.13-.02-76.26,0-114.39,0v.18ZM520.41,427.11c-4.16.6-8.4-.69-12.58-.54-12.01.44-20.43,8.5-19.26,18.27,1.11,9.28,10.88,15.12,22.3,12.89,4.59-.89,8.75-1.86,13.59-.35,4.51,1.41,7.64-1.27,7.65-6.45.01-7-.45-14.03.1-20.99,1.73-22.07-19.9-26.7-34.08-21.45-3.33,1.23-7.4,3.29-6.15,7.8,1.23,4.41,4.74,5.98,9.51,4.5,6.93-2.16,13.66-1.53,18.91,6.31ZM273.93,143.22s.04,0,.06,0c0-7.35.33-14.72-.06-22.05-1.06-19.7-18.82-30.63-36.92-22.49-20.65,9.29-33.18,26.08-38.28,47.45-18.79,78.67,8.23,141.96,68.16,192.57,22.51,19.01,49.08,23.92,76.74,9.89,20.1-10.2,20.49-29.19.25-43.63-8.7-6.21-16.52-13.54-23.47-21.65-11.13-12.99-22.01-15.09-34.07-5.75-13.1,10.15-21.54,8.7-30.2-5.39-12.41-20.21-19.2-42.55-24.09-65.5-2.67-12.49.17-15.52,12.91-15.45,16.46.08,28.4-11.36,28.94-27.96.22-6.68.04-13.36.04-20.05ZM493.33,212.03c-1.31-109.37-117.33-183.85-220.81-127.9-2.16,1.17-3.74,3.23-4.15,5.65-1.02,6.06,2.03,7.31,4.4,11.43,3.28,5.7,6.32,5.87,11.96,2.76,47.02-25.96,104.49-19.15,143.59,16.64,40.21,36.81,52.03,93.21,30.6,143.16-5.9,13.75-14.48,25.5-23.29,37.28-3.69,4.93-5.44,10.34-.18,15.31,5.69,5.37,11.64,3.84,17.23-.39,1.57-1.18,2.75-2.9,4.05-4.41,24.58-28.62,35.82-62.15,36.6-99.53ZM300.05,449.9c-1.58,2.62-1.66,7.79-4.95,11.06-6.71,6.7-15.1,6.5-23.17,1.69-4.66-2.78-8.48-1.8-11.05,2.67-2.62,4.58,1.4,6.63,4.28,8.7,18.59,13.35,44.87,3.43,47.21-18.49,1.45-13.55.63-27.37.46-41.06-.08-6.47-4.63-9.92-9.97-6.86-4.81,2.77-7.95.83-11.99-.14-9.92-2.38-18.72-.25-25.14,8.07-6.38,8.26-8.29,17.34-3.52,27.2,6.21,12.82,24.17,17.29,37.84,7.16ZM450.9,458.23c7.71-.04,15.31-2.44,20.36-7.15,3.18-2.97,8.63-5.84,4.11-11.39-3.67-4.51-7.62-3.28-12.22-.18-10.7,7.21-20.88,5.65-28.43-3.51-6.99-8.48-6.89-21.43.24-29.55,7.65-8.71,18.54-10.03,28.69-3,4.33,3,8.65,4.9,12.33.27,4.15-5.22-.87-8.49-4.04-11.66-1.61-1.61-3.81-2.72-5.91-3.72-13.54-6.49-28.74-3.98-39.99,6.49-10.7,9.96-14.31,26.81-8.72,40.65,5.66,14,18.66,22.81,33.57,22.74ZM324.06,419.56h.22c0,10.02-.08,20.05.04,30.07.06,4.51,2.04,8.01,7.01,8.06,5.03.05,6.85-3.28,6.87-7.96.02-6.68-.36-13.41.33-20.03.64-6.12,4.87-9.64,11.09-9.13,5.77.47,7.44,4.85,7.45,10.07,0,6.68.03,13.37.12,20.05.06,4.38,2.24,7,6.75,6.91,4.39-.08,6.81-2.57,6.79-6.98-.04-9.35.48-18.78-.55-28.03-1.22-10.95-11.2-18.55-21.62-15.38-10.09,3.06-11.26-.69-10.38-8.84.25-2.31-.09-4.67-.04-7.01.12-4.9-1.07-8.89-6.97-8.77-5.66.12-7.14,3.97-7.13,8.89.03,9.36,0,18.71,0,28.07ZM120.34,431.92c0,5.01.04,10.02-.01,15.02-.06,5.23-.05,10.87,7.08,10.75,8.52-.14,6.04-8.28,6.78-13.42.46-3.23.67-6.51.2-9.73-1.27-8.73,2.15-14.11,9.82-13.99,7,.11,8.25,5.57,8.22,11.4-.03,5.68.07,11.35-.04,17.03-.1,5.05,1.55,8.72,7.2,8.63,5.82-.09,6.86-4.17,6.78-9.02-.12-7.01.14-14.03-.18-21.03-.75-16.48-11.46-24.06-27.17-19.44-1.86.55-3.83,1.69-5.59,1.44-13.08-1.88-13.07-1.97-13.1,11.35,0,3.67,0,7.34.02,11.02ZM205.15,442.85c-5.26,2.61-10.36,4.62-15.79.68-3.55-2.57-6.44-1.06-8.37,2.12-2.26,3.72.03,6.5,2.99,8.37,7.15,4.53,15.08,5.26,23.17,3.49,8.31-1.81,14.2-6.76,14.47-15.59.26-8.43-6.09-11.66-13.19-14.22-4.62-1.67-13.84-.58-12.64-6.27,1.13-5.36,8.95-1.41,13.87-.24,3.84.91,6.55-.85,7.91-4.41,1.41-3.68-1.14-5.65-3.81-7.18-6.44-3.66-13.42-3.92-20.42-2.34-7.59,1.71-12.8,6.49-13.33,14.33-.52,7.67,3.91,12.46,10.91,16,4.6,2.33,10.91-.42,14.23,5.24ZM401.2,458.3c3.47-.03,6.91-.45,8.06-4.37,1.28-4.39-1.47-6.8-5.05-8.5-6.66-3.17-5.46-10.05-5.82-15.4-.56-8.52.22-12.36,4.78-12.06,8.44.56,7.78-7.37,6.4-10.44-1.83-4.08-7.67,1.69-11.61-1.69-4.18-3.58-.18-14.73-.84-19.27-.91-6.22-12.2-6.09-12.2-.7,0,12.8,5.45,20.66-9.45,20.61-1.97,0-2.08,12.33-.14,11.87,13.22-3.09,8.73,14,10.12,21.52,2.04,11,7.18,18.15,15.75,18.44ZM573.75,420.44h-.09c0,9.34.08,18.69-.03,28.03-.06,4.8.79,9.01,6.58,9.21,5.66.19,7.35-3.7,7.35-8.61.03-19.36.03-38.71,0-58.07,0-4.48-1.64-8.18-6.67-8.3-5.65-.14-7.2,3.71-7.16,8.71.08,9.68.02,19.36.02,29.03ZM90.57,419.85h-.04c0,9.66.07,19.33-.03,28.99-.05,5.01,1.61,8.77,7.08,8.9,5.78.14,8.29-3.46,8.27-8.99-.05-18.99-.08-37.99-.19-56.98-.03-5.31-2.04-9.48-8.08-9.1-5.32.33-7.05,4.27-7.03,9.19.03,9.33,0,18.66,0,27.99ZM560.32,420.38h-.15c0-10.01-.07-20.01.03-30.02.05-4.9-2.33-7.77-7.03-7.92-6.44-.21-8.06,5.39-6.52,12.37,3.61,16.33,3.02,33.23-.1,49.66-1.47,7.76.08,13.33,7.14,13.08,5.03-.18,6.69-3.51,6.65-8.16-.07-9.67-.02-19.34-.02-29.02ZM234.42,432.01c-.09,0-.18,0-.28,0,0,5.98-.02,11.95,0,17.93.02,4.62,1.92,7.85,6.94,7.84,5-.01,7.01-3.33,7.06-7.85.12-11.62.12-23.24.04-34.85-.03-4.09-1.64-7.05-6.35-7.29-5.2-.26-7.22,2.73-7.37,7.3-.19,5.64-.05,11.28-.05,16.93ZM249.57,394.02c-.6-5.24-3.42-8.91-8.91-8.67-5.02.22-7.57,3.92-7.61,8.88-.04,4.8,4.3,8.31,7.25,8.05,3.71-.33,9.9-1.34,9.27-8.27Z"/>
  <path class="cls-4" d="M479.49,551.51c.34,3.78.25,5.77-2.07,6.69-1.78.7-3.39-.04-4.46-1.33-6.27-7.59-12.66-7.22-19.27-.52-1.73,1.75-3.57,3.25-6,1.28-1.83-1.48-1.69-3.61-.89-5.48,3.69-8.53,7.35-17.07,11.36-25.45,1.95-4.08,6.01-5.65,8.48-1.35,5.09,8.87,9.09,18.36,12.84,26.15Z"/>
  <path class="cls-4" d="M490.34,541.04c0-3.97-.09-7.95.03-11.91.08-2.91,1.35-5.47,4.48-5.59,3.36-.13,4.36,2.64,4.4,5.47.11,7.61.11,15.23,0,22.84-.04,3.16-1.03,6.44-4.65,6.56-3.98.14-4.34-3.32-4.37-6.44-.04-3.64,0-7.28,0-10.92.04,0,.07,0,.11,0Z"/>
  <path class="cls-4" d="M273.93,143.22c0,6.68.18,13.37-.04,20.05-.54,16.59-12.48,28.04-28.94,27.96-12.74-.07-15.58,2.96-12.91,15.45,4.9,22.95,11.68,45.29,24.09,65.5,8.66,14.09,17.1,15.54,30.2,5.39,10.67-8.27,20.42-7.57,30.24,1.7,10.66,10.07,21.6,19.86,32.39,29.81,14.91,13.76,12.9,30.26-5.33,39.51-27.66,14.03-54.23,9.12-76.74-9.89-59.93-50.61-86.96-113.9-68.16-192.57,5.1-21.37,17.63-38.16,38.28-47.45,18.1-8.14,35.86,2.8,36.92,22.49.4,7.33.06,14.7.06,22.05-.02,0-.04,0-.06,0ZM259.88,144.15c.1,0,.2,0,.3,0,0-6.33-.13-12.66.03-18.99.23-8.73-2.37-15.26-12.24-16.08-8.41-.7-15.19,4.9-15.74,14.53-.79,13.94-.66,27.96-.29,41.93.21,8.17,5.14,13.05,13.48,12.99,8.54-.07,13.84-4.69,14.37-13.42.42-6.97.09-13.98.09-20.98ZM326.28,340.53c6.38-.16,11.33-3.35,15.89-7.46,3.97-3.58,4.49-7.23.46-11.05-12.07-11.45-23.65-23.51-36.44-34.1-8.79-7.27-14.44,2.4-20.17,6.97-4.99,3.99-4.46,9.24.35,13.76,9.7,9.12,19.33,18.31,29.02,27.45,3.04,2.87,6.76,4.16,10.89,4.43Z"/>
  <path class="cls-4" d="M493.31,212.02c-.77,37.38-12,70.91-36.59,99.53-1.3,1.52-2.48,3.23-4.05,4.41-5.59,4.23-11.54,5.76-17.23.39-5.26-4.97-3.51-10.38.18-15.31,8.81-11.78,17.39-23.53,23.29-37.28,21.43-49.94,9.61-106.35-30.6-143.16-39.1-35.79-96.57-42.6-143.59-16.64-5.65,3.12-8.72,2.97-11.96-2.76-2.43-4.3-5.57-6.46-4.31-11.92,1.25-5.4,3.23-4.81,8.17-7.31,102.42-51.82,215.41,22.13,216.69,130.05Z"/>
  <path class="cls-1" d="M259.88,144.15c0,6.99.34,14.01-.09,20.98-.53,8.73-5.83,13.35-14.37,13.42-8.34.07-13.27-4.81-13.48-12.99-.37-13.97-.5-27.99.29-41.93.55-9.64,7.33-15.23,15.74-14.53,9.87.82,12.47,7.35,12.24,16.08-.17,6.32-.03,12.66-.03,18.99-.1,0-.2,0-.3,0Z"/>
  <path class="cls-1" d="M326.27,340.53c-4.12-.27-7.84-1.56-10.88-4.42-9.68-9.14-19.32-18.32-29.02-27.45-4.81-4.53-5.35-9.78-.35-13.76,5.73-4.58,11.37-14.25,20.17-6.97,12.79,10.59,24.37,22.65,36.44,34.1,4.03,3.83,3.51,7.48-.46,11.05-4.56,4.11-9.51,7.29-15.9,7.45Z"/>
  <path class="cls-1" d="M298.38,432.87c-.29,6.79-4.9,11.07-11.96,11.32-7.14.25-12.06-3.94-12.61-11.53-.55-7.69,3.62-12.01,11.06-12.74,6.91-.68,13.21,5.23,13.51,12.95Z"/>
  <g>
    <path class="cls-3" d="M356.01,193.7c-4.42-1.37-8.87-2.68-13.27-4.13-8.45-2.79-14.41-7.95-15.4-17.31-1.02-9.62,3.66-16.51,11.29-21.61,5.14-3.44,11.03-5.02,17.17-5.68.1,5.47.2,10.94.3,16.41-6.52-.9-12.38,1.54-12.86,7.93-.6,7.91,7.37,6.65,12.44,8.1.11,5.43.22,10.86.33,16.29Z"/>
    <path class="cls-3" d="M356.15,226.04c-6.44-2.81-13.23-5.04-19.19-8.65-3.63-2.19-8.75-6.27-6.19-11.02,2.86-5.3,8.68-3.43,13.19-.93,3.95,2.19,7.98,2.83,12.33,2.25-.05,6.11-.09,12.23-.14,18.34Z"/>
    <path class="cls-4" d="M355.68,177.41c-5.07-1.45-13.04-.19-12.44-8.1.48-6.39,6.34-8.83,12.86-7.93.51,5.36,1.1,10.72-.42,16.03Z"/>
    <path class="cls-4" d="M370.58,161c.71.02,1.41.07,2.12.07,5.71-.02,10.59,2.66,10.31,8.26-.38,7.38-7.31,5.91-12.37,6.36-1.11-4.89-1.05-9.79-.06-14.69Z"/>
    <path class="cls-3" d="M370.22,139.22c-.16-16.01,3.23-19.01,18.52-16.4,17.6,3,32.86,17.66,34.82,34.91.79,6.95,3.85,10.63,9.31,14.33,19.14,12.95,23.78,45.01,9.53,63.31-.52.67-1.99.6-3.01.88-9.1-.41-15.55,8.62-25.23,6.76-7.53-1.45-10.56,2.31-8.97,9.78-6.8,5.1-9.87,13.94-18.38,17.48-11.02,4.58-14.7,2.65-16.57-9.04-2.05-12.81-1.67-25.53-.16-38.34.65-5.52.16-11.18.18-16.77,5.27,3.06,8.66-1.71,12.77-3.19,4.75-1.71,9.49-2.7,12.37,2.35,2.71,4.75-1.09,7.97-4.25,10.98-3.73,3.56-8.32,5.62-13.12,7.16-3.85,1.23-6.22,3.31-6.19,7.62.05,6.82-.03,13.63-.02,20.45,0,5.78,2.98,6.74,7.7,4.63,7.15-3.2,9.48-9.1,9.68-16.53.32-11.68,2.8-13.57,14.5-11.92,2.13.3,4.24.89,6.38.99,11.25.55,21.59-6.62,24.71-17.01,3.15-10.49-1.03-22.87-11.61-27.26-9.39-3.9-12.04-9.06-12.59-18.95-1.17-21.02-24.16-35.21-40.36-26.19Z"/>
    <path class="cls-3" d="M291.31,240.99c-5.04,1.03-6.53-3.24-8.33-6.17-13.79-22.41-8.96-48.8,12.01-64.29,4.53-3.35,6.12-7.24,7.23-12.4,4.36-20.27,20.62-34.81,39.3-35.78,13.3-.69,15.23,1.3,14.76,15.23-24.53-2.22-40.18,8.45-41.16,29.28-.4,8.48-2.24,13.23-10.88,16.67-12.01,4.78-16.12,17.37-11.84,29.51,3.93,11.13,15.41,17.61,27.47,15.49,2.47-.43,4.92-1.33,7.38-1.36,6.85-.09,10.84,2.57,9.85,10.38-1.66,13.06,5.22,19.98,19.24,19.78-.59,5,3,11.82-2.73,14.54-6,2.85-12.26-.44-18.12-3.65-6.55-3.59-7.69-12.19-14.9-14.84-.52-3.31,1.4-9.34-2.1-9.39-9.24-.13-17.84-5.15-27.19-2.99Z"/>
    <path class="cls-4" d="M356.35,257.32c-14.02.2-20.9-6.72-19.24-19.78,1-7.81-2.99-10.47-9.85-10.38-2.47.03-4.91.93-7.38,1.36-12.07,2.12-23.55-4.36-27.47-15.49-4.29-12.15-.17-24.74,11.84-29.51,8.64-3.44,10.48-8.19,10.88-16.67.98-20.83,16.63-31.5,41.16-29.28-.16,2.47-.33,4.93-.49,7.4-6.13.66-12.02,2.24-17.17,5.68-7.63,5.1-12.3,11.98-11.29,21.61.99,9.36,6.95,14.52,15.4,17.31,4.4,1.45,8.84,2.76,13.27,4.13.09,4.67.18,9.33.27,14-4.35.57-8.38-.06-12.33-2.25-4.51-2.5-10.33-4.38-13.19.93-2.56,4.76,2.56,8.83,6.19,11.02,5.96,3.6,12.75,5.84,19.19,8.65.07,10.43.13,20.85.2,31.28ZM320.94,203.3c-.04-5.11-.85-10.08-6.43-9.8-9.38.47-8.24,9.53-10.2,15.35-1.43,4.24,2.13,7.92,6.61,7.86,9.06-.12,8.71-7.78,10.01-13.41Z"/>
    <path class="cls-4" d="M370.22,139.22c16.2-9.02,39.19,5.17,40.36,26.19.55,9.89,3.2,15.05,12.59,18.95,10.58,4.39,14.76,16.77,11.61,27.26-3.12,10.39-13.46,17.56-24.71,17.01-2.14-.1-4.25-.69-6.38-.99-11.7-1.65-14.18.24-14.5,11.92-.2,7.44-2.53,13.33-9.68,16.53-4.72,2.11-7.7,1.15-7.7-4.63,0-6.82.07-13.64.02-20.45-.03-4.3,2.34-6.38,6.19-7.62,4.8-1.54,9.39-3.6,13.12-7.16,3.16-3.01,6.96-6.23,4.25-10.98-2.88-5.05-7.62-4.06-12.37-2.35-4.12,1.48-7.51,6.26-12.77,3.19-.01-4.84-.7-7.34-.55-12.19,16.78-1.54,27.16-9.42,28.88-19.98,1.98-12.07-4.71-21.31-19.99-27.92-2.9-1.26-5.59-3.01-8.37-4.54,0-.75,0-1.51,0-2.26ZM404.98,203.3c.89,6.26,2.32,12.87,10.52,13.46,4.9.35,8.7-3.15,7.64-8.09-1.29-6.04-2.75-13.46-10.19-14.82-5.86-1.07-7.63,3.92-7.97,9.45Z"/>
    <path class="cls-3" d="M370.22,141.48c2.79,1.53,5.47,3.29,8.37,4.54,15.28,6.61,21.97,15.85,19.99,27.92-1.73,10.55-12.1,18.43-28.88,19.98-.27-5.33,1.2-12.9.93-18.23,5.06-.45,11.99,1.02,12.37-6.36.28-5.6-4.6-8.28-10.31-8.26-.71,0-1.41-.04-2.12-.07-.12-6.51-.24-13.02-.36-19.53Z"/>
    <path class="cls-4" d="M405.19,252.77c-1.59-7.46,1.44-11.23,8.97-9.78,9.68,1.87,19.14-8.05,28.24-7.64-8.13,12.26-22.42,18.91-37.21,17.41Z"/>
    <path class="cls-4" d="M286.38,239.83c9.35-2.16,22.88,4.02,32.12,4.15,3.5.05,1.58,6.08,2.1,9.39-11.72.5-27.58-2.02-34.22-13.54Z"/>
    <path class="cls-3" d="M320.94,203.3c-1.3,5.63-.95,13.3-10.01,13.41-4.48.06-8.04-3.62-6.61-7.86,1.96-5.82.82-14.88,10.2-15.35,5.57-.28,6.39,4.69,6.43,9.8Z"/>
    <path class="cls-3" d="M404.98,203.3c.34-5.53,2.11-10.52,7.97-9.45,7.44,1.36,8.9,8.77,10.19,14.82,1.06,4.95-2.74,8.45-7.64,8.09-8.2-.59-9.63-7.2-10.52-13.46Z"/>
  </g>
  <path class="cls-1" d="M517.77,441.71c-.74,4.65-4.63,4.81-8.14,4.99-3.13.16-6.27-.97-6.32-4.63-.06-4.48,3.73-4.91,7.05-4.87,3.1.03,6.91-.49,7.41,4.52Z"/>
  <path class="cls-2" d="M458.78,541.54c2.51-5.57,2.04-11.07,5.6-8.14,1.81,1.49,1.69,3.61,2.8,8.45.76,3.32-9.73,2.62-8.41-.31Z"/>
</svg>