<svg xmlns="http://www.w3.org/2000/svg" viewBox="0 0 256 256" role="img" aria-labelledby="title desc">
  <title id="title">Qubit Listening</title>
  <desc id="desc">Friendly Qubit AI assistant mascot in listening mode with audio waveforms.</desc>
  <defs>
    <linearGradient id="body" x1="64" y1="36" x2="192" y2="224" gradientUnits="userSpaceOnUse">
      <stop stop-color="#FFFFFF"/>
      <stop offset="1" stop-color="#E7F1FF"/>
    </linearGradient>
    <linearGradient id="cyan" x1="0" y1="0" x2="1" y2="1">
      <stop stop-color="#00D1FF"/>
      <stop offset="1" stop-color="#228BFF"/>
    </linearGradient>
    <filter id="shadow" x="-20%" y="-20%" width="140%" height="150%">
      <feDropShadow dx="0" dy="10" stdDeviation="10" flood-color="#081020" flood-opacity=".18"/>
    </filter>
  </defs>

  <g filter="url(#shadow)">
    <ellipse cx="128" cy="226" rx="54" ry="10" fill="#081020" opacity=".12"/>
    <path d="M123 38h10v22h-10z" fill="#0B1020"/>
    <circle cx="128" cy="31" r="12" fill="url(#cyan)"/>
    <rect x="52" y="55" width="152" height="104" rx="42" fill="url(#body)" stroke="#D6E7FF" stroke-width="4"/>
    <rect x="67" y="70" width="122" height="74" rx="28" fill="#081020"/>
    <circle cx="96" cy="107" r="11" fill="#66F0FF"/>
    <circle cx="160" cy="107" r="11" fill="#66F0FF"/>
    <path d="M109 126c8 12 30 12 38 0" fill="none" stroke="#66F0FF" stroke-width="7" stroke-linecap="round"/>
    <circle cx="50" cy="107" r="16" fill="#0B1B3F"/>
    <circle cx="206" cy="107" r="16" fill="#0B1B3F"/>
    <circle cx="50" cy="107" r="9" fill="url(#cyan)" opacity=".75"/>
    <circle cx="206" cy="107" r="9" fill="url(#cyan)" opacity=".75"/>
    <path d="M86 158h84l14 58H72z" fill="url(#body)" stroke="#D6E7FF" stroke-width="4"/>
    <circle cx="128" cy="188" r="23" fill="#FFFFFF" stroke="#D6E7FF" stroke-width="3"/>
    <path d="M139 199c-4 4-9 6-15 6-12 0-22-10-22-22s10-22 22-22c7 0 14 3 18 9" fill="none" stroke="#08245C" stroke-width="10" stroke-linecap="round"/>
    <circle cx="151" cy="194" r="7" fill="url(#cyan)"/>
    <rect x="83" y="213" width="24" height="16" rx="8" fill="#0B1B3F"/>
    <rect x="149" y="213" width="24" height="16" rx="8" fill="#0B1B3F"/>
    <path d="M82 171c-14 5-22 16-23 32" stroke="#0B1B3F" stroke-width="13" stroke-linecap="round" fill="none"/>
    <path d="M174 171c14 5 22 16 23 32" stroke="#0B1B3F" stroke-width="13" stroke-linecap="round" fill="none"/>
    <circle cx="59" cy="207" r="8" fill="#0B1B3F"/>
    <circle cx="197" cy="207" r="8" fill="#0B1B3F"/>
  </g>

  <g fill="none" stroke="url(#cyan)" stroke-linecap="round" stroke-width="5" opacity=".9">
    <path d="M24 112v-8"/>
    <path d="M34 121V95"/>
    <path d="M44 116v-16"/>
    <path d="M212 116v-16"/>
    <path d="M222 121V95"/>
    <path d="M232 112v-8"/>
  </g>
</svg>
