<svg xmlns="http://www.w3.org/2000/svg" viewBox="0 0 256 256" role="img" aria-labelledby="title desc">
  <title id="title">Qubit Alerting</title>
  <desc id="desc">Qubit AI assistant mascot alerting the agent to an important insight.</desc>
  <defs><linearGradient id="body" x1="64" y1="36" x2="192" y2="224" gradientUnits="userSpaceOnUse"><stop stop-color="#FFFFFF"/><stop offset="1" stop-color="#E7F1FF"/></linearGradient><linearGradient id="cyan" x1="0" y1="0" x2="1" y2="1"><stop stop-color="#00D1FF"/><stop offset="1" stop-color="#228BFF"/></linearGradient><filter id="shadow" x="-20%" y="-20%" width="140%" height="150%"><feDropShadow dx="0" dy="10" stdDeviation="10" flood-color="#081020" flood-opacity=".18"/></filter></defs>
  <g filter="url(#shadow)">
    <ellipse cx="128" cy="226" rx="54" ry="10" fill="#081020" opacity=".12"/><path d="M123 38h10v22h-10z" fill="#0B1020"/><circle cx="128" cy="31" r="12" fill="#FF4A4A"/>
    <rect x="52" y="55" width="152" height="104" rx="42" fill="url(#body)" stroke="#D6E7FF" stroke-width="4"/><rect x="67" y="70" width="122" height="74" rx="28" fill="#081020"/>
    <circle cx="96" cy="107" r="11" fill="#66F0FF"/><circle cx="160" cy="107" r="11" fill="#66F0FF"/><path d="M111 129c8-5 26-5 34 0" fill="none" stroke="#66F0FF" stroke-width="6" stroke-linecap="round"/>
    <circle cx="50" cy="107" r="16" fill="#0B1B3F"/><circle cx="206" cy="107" r="16" fill="#0B1B3F"/>
    <path d="M86 158h84l14 58H72z" fill="url(#body)" stroke="#D6E7FF" stroke-width="4"/><circle cx="128" cy="188" r="23" fill="#FFFFFF" stroke="#D6E7FF" stroke-width="3"/>
    <path d="M139 199c-4 4-9 6-15 6-12 0-22-10-22-22s10-22 22-22c7 0 14 3 18 9" fill="none" stroke="#08245C" stroke-width="10" stroke-linecap="round"/><circle cx="151" cy="194" r="7" fill="url(#cyan)"/>
    <rect x="83" y="213" width="24" height="16" rx="8" fill="#0B1B3F"/><rect x="149" y="213" width="24" height="16" rx="8" fill="#0B1B3F"/>
    <path d="M82 171c-14 5-22 16-23 32" stroke="#0B1B3F" stroke-width="13" stroke-linecap="round" fill="none"/><path d="M174 171c14 5 22 16 23 32" stroke="#0B1B3F" stroke-width="13" stroke-linecap="round" fill="none"/>
  </g>
  <g stroke="#FF4A4A" stroke-width="7" stroke-linecap="round" fill="none">
    <path d="M213 60l12-12"/><path d="M224 82h18"/><path d="M199 43v-18"/>
  </g>
  <text x="210" y="54" font-family="Arial, Helvetica, sans-serif" font-size="54" font-weight="700" fill="#FF4A4A">!</text>
</svg>
